<svg width="300" height="300" viewBox="0 0 300 300" fill="none" xmlns="http://www.w3.org/2000/svg">
<path d="M0 150C0 67.2 67.2 0 150 0C232.8 0 300 67.2 300 150C300 232.8 232.8 300 150 300C67.2 300 0 232.8 0 150Z" fill="#DEE2E6"/>
<path d="M146.25 46.875C171.15 46.875 191.25 66.975 191.25 91.875C191.25 116.775 171.15 136.875 146.25 136.875C121.35 136.875 101.25 116.775 101.25 91.875C101.25 66.975 121.35 46.875 146.25 46.875ZM146.25 259.875C108.75 259.875 75.6 240.675 56.25 211.575C56.7 181.725 116.25 165.375 146.25 165.375C176.1 165.375 235.8 181.725 236.25 211.575C216.9 240.675 183.75 259.875 146.25 259.875Z" fill="white"/>
</svg>
